<svg width="198" height="227" viewBox="0 0 198 227" fill="none" xmlns="http://www.w3.org/2000/svg">
<path d="M197.215 226.845H0V0H197.215V226.845Z" fill="black"/>
<path d="M77.8738 98.3128L82.3608 91.3998H44.2998L46.1048 89.6758C48.7248 87.1758 51.1798 84.7988 53.4028 82.6118C56.7408 79.3348 59.7928 76.2218 62.4728 73.3558C65.0898 70.5508 67.3648 67.9288 69.2358 65.5628C71.1138 63.1788 72.6738 60.8858 73.8688 58.7488C75.0608 56.6108 75.9628 54.5158 76.5498 52.5218C77.1308 50.5208 77.4258 48.4938 77.4258 46.4998C77.4258 43.6588 76.9028 40.9058 75.8728 38.3178C74.8258 35.6998 73.2538 33.3818 71.1988 31.4328C69.1478 29.4738 66.5898 27.9058 63.5918 26.7688C58.7248 24.9178 51.0458 23.9708 44.0928 26.8678C41.2108 28.0688 38.6238 29.7188 36.4028 31.7718C34.1648 33.8368 32.3158 36.2908 30.9078 39.0618C29.4948 41.8528 28.6588 44.8588 28.4258 47.9968L28.3198 49.4458H33.0108L33.1948 48.3118C33.4588 46.7008 34.0698 45.2138 35.0648 43.7678C36.0808 42.3038 37.3388 41.0038 38.8078 39.9008C40.3008 38.7888 41.9778 37.8988 43.7948 37.2528C47.7248 35.8408 52.2798 35.9558 55.6768 37.5568C57.4758 38.4058 58.9898 39.5488 60.1798 40.9538C61.3898 42.3838 62.3148 44.0508 62.9318 45.9108C63.5608 47.7998 63.8818 49.7778 63.8818 51.7858C63.8818 53.1658 63.7188 54.5718 63.3968 55.9648C63.0738 57.3288 62.4568 58.8748 61.5628 60.5658C60.6528 62.2828 59.3408 64.2678 57.6608 66.4678C55.9448 68.7078 53.7028 71.3338 50.9958 74.2748C48.2478 77.2548 44.8658 80.7308 40.9408 84.6058C36.9948 88.4918 32.2768 93.0518 26.9168 98.1618L26.4968 98.5578V102.412H70.3248C73.3858 102.412 76.2078 100.879 77.8738 98.3128Z" fill="white"/>
<path d="M52.8807 122.785L16.4337 200.136H19.8767C23.3407 200.136 26.5337 198.115 28.0127 194.987L34.7207 180.792L40.5257 168.365H40.5167L41.8137 165.607L52.0097 144.006L63.1957 168.365H48.1937L44.7177 175.806H66.6897L75.4057 194.879C76.8677 198.072 80.0827 200.136 83.5967 200.136H93.2847L57.6867 122.785H52.8807Z" fill="white"/>
<path d="M146.541 162.936C148.116 162.384 149.602 161.742 150.959 161.024C153.332 159.784 155.386 158.277 157.069 156.546C158.779 154.807 160.122 152.824 161.063 150.65C162.018 148.462 162.502 146.083 162.502 143.578C162.502 140.571 161.879 137.746 160.65 135.181C159.424 132.624 157.577 130.387 155.157 128.53C152.767 126.702 149.772 125.272 146.255 124.28C142.759 123.288 138.679 122.785 134.128 122.785H106.868V200.14C111.939 200.14 115.287 199.835 115.287 194.764V130.214H131.819C133.922 130.214 135.883 130.564 137.647 131.253C139.405 131.924 140.942 132.881 142.211 134.093C143.457 135.262 144.445 136.72 145.138 138.419C145.84 140.134 146.195 142.037 146.195 144.078C146.195 146.285 145.749 148.295 144.871 150.053C143.975 151.844 142.765 153.318 141.173 154.561C139.57 155.815 137.637 156.807 135.428 157.507C133.562 158.092 124.534 158.434 122.38 158.53V165.78L152.053 196.417C153.772 198.749 156.532 200.14 159.436 200.14H172.829L139.46 165.414L146.541 162.936Z" fill="white"/>
<path d="M130.796 46.9368L118.188 30.2788C116.496 28.0408 113.815 26.7058 111.015 26.7058H97.5097L126.578 65.0018L94.6047 102.416H100.444C103.072 102.416 105.566 101.264 107.285 99.2548L131.108 71.3528L131.118 71.3648L140.736 60.1398L130.796 46.9368Z" fill="#B09264"/>
<path d="M169.343 26.7054H163.445C160.802 26.7054 158.306 27.8564 156.596 29.8634L140.746 48.4444L145.425 54.6584L169.343 26.7054Z" fill="#B09264"/>
<path d="M135.556 76.9954L152.023 98.8344C153.717 101.076 156.406 102.415 159.214 102.415H172.819L145.077 65.8874L135.556 76.9954Z" fill="#B09264"/>
</svg>
